<mxfile host="app.diagrams.net" modified="2023-06-27T15:16:37.568Z" agent="Mozilla/5.0 (Macintosh; Intel Mac OS X 10_15_7) AppleWebKit/605.1.15 (KHTML, like Gecko) Version/16.2 Safari/605.1.15" version="21.5.1" etag="Bqri850xCTnBycX8wiFG" type="github">
  <diagram name="Sivu-1" id="j4ogmkl9LlgKLdsNAHyS">
    <mxGraphModel>
      <root>
        <mxCell id="0" />
        <mxCell id="1" parent="0" />
      </root>
    </mxGraphModel>
  </diagram>
</mxfile>
